# xmcd
#
# Track frame offsets:
# 150
# 19630
# 42302
# 64974
# 83590
# 100409
# 116697
# 132046
# 154450
# 173027
# 189125
# 211797
# 234464
# 253740
#
# Disc length: 3616 seconds
#
#
# Revision: 0
# Processed by: cddbd v1.5.1PL0 Copyright (c) Steve Scherf et al.
# Submitted via: FreeRIP 2.90 
#
DISCID=b40e1e0e
DTITLE=Seu Jorge - MTV Apresenta
DYEAR=2004
DGENRE=Samba
TTITLE0=Chega no Swingue
TTITLE1=Te Queria
TTITLE2=Hagua - A Carne
TTITLE3=Mania de Peitão
TTITLE4=Samba Que Nem Rita à Dora
TTITLE5=O Samba Taí
TTITLE6=O Pequenês e o Pit Bull
TTITLE7=Carolina
TTITLE8=De Alegria Raiou o Dia
TTITLE9=Doidinha
TTITLE10=São Gonça
TTITLE11=Funk Baby - São Gonça
TTITLE12=Mangueira
TTITLE13=Gafieira S/A
EXTD=
EXTT0=
EXTT1=
EXTT2=
EXTT3=
EXTT4=
EXTT5=
EXTT6=
EXTT7=
EXTT8=
EXTT9=
EXTT10=
EXTT11=
EXTT12=
EXTT13=
PLAYORDER=
